<?xml version="1.0" encoding="iso-8859-1"?>
<!-- Generator: Adobe Illustrator 19.0.0, SVG Export Plug-In . SVG Version: 6.00 Build 0)  -->
<svg version="1.1" id="Layer_1" xmlns="http://www.w3.org/2000/svg" xmlns:xlink="http://www.w3.org/1999/xlink" x="0px" y="0px"
	 viewBox="0 0 250 85" style="enable-background:new 0 0 250 85;" xml:space="preserve">
<g id="Trani">
	<path id="XMLID_14_" style="fill:#C03437;" d="M39.884,12.574v36.152H27.697V12.574H5.853V5.807h56.859v6.768H39.884z"/>
	<path id="XMLID_16_" style="fill:#C03437;" d="M103.64,48.727L85.312,31.002c-1.844-0.019-4.422-0.088-7.734-0.205v17.93H64.921
		V5.807c0.687,0,3.328-0.073,7.922-0.22s8.297-0.22,11.109-0.22c17.438,0,26.156,4.219,26.156,12.656
		c0,2.539-1.203,4.854-3.609,6.943c-2.407,2.091-5.438,3.564-9.094,4.424l20.297,19.336H103.64z M77.578,12.428v11.924
		c2.25,0.117,3.968,0.176,5.156,0.176c5.093,0,8.82-0.449,11.18-1.348c2.359-0.897,3.539-2.646,3.539-5.244
		c0-2.109-1.266-3.584-3.797-4.424c-2.531-0.839-6.516-1.26-11.953-1.26C80.39,12.252,79.015,12.311,77.578,12.428z"/>
	<path id="XMLID_19_" style="fill:#C03437;" d="M157.88,48.727l-5.016-8.701h-23.531l-4.781,8.701h-13.547L138.38,5.221h5.344
		l27.609,43.506H157.88z M141.052,18.346l-8.25,15.85h16.5L141.052,18.346z"/>
	<path id="XMLID_22_" style="fill:#C03437;" d="M217.886,49.313l-33.328-27.158v26.602h-11.719V5.807h5.859l32.438,25.898V5.807
		h11.719v43.506H217.886z"/>
	<path id="XMLID_24_" style="fill:#C03437;" d="M231.392,48.727V5.807h12.188v42.92H231.392z"/>
</g>
<g id="Cars">
	<path id="XMLID_2_" style="fill:#FFFFFF;" d="M81.556,63.488v17.178H77.25V63.488H69.53v-3.215h20.093v3.215H81.556z"/>
	<path id="XMLID_4_" style="fill:#FFFFFF;" d="M107.853,80.666l-6.477-8.422c-0.651-0.009-1.563-0.041-2.733-0.097v8.519H94.17
		V60.273c0.243,0,1.176-0.035,2.799-0.104c1.624-0.07,2.932-0.104,3.926-0.104c6.162,0,9.243,2.004,9.243,6.014
		c0,1.206-0.425,2.306-1.275,3.299c-0.851,0.993-1.922,1.693-3.214,2.102l7.172,9.188H107.853z M98.643,63.419v5.666
		c0.795,0.056,1.402,0.083,1.822,0.083c1.8,0,3.117-0.213,3.951-0.641c0.833-0.427,1.25-1.257,1.25-2.491
		c0-1.002-0.447-1.703-1.342-2.103c-0.895-0.398-2.303-0.598-4.224-0.598C99.636,63.336,99.15,63.363,98.643,63.419z"/>
	<path id="XMLID_7_" style="fill:#FFFFFF;" d="M130.786,80.666l-1.772-4.134h-8.316l-1.689,4.134h-4.787l9.674-20.672h1.889
		l9.756,20.672H130.786z M124.839,66.23l-2.916,7.531h5.831L124.839,66.23z"/>
	<path id="XMLID_10_" style="fill:#FFFFFF;" d="M155.757,80.944l-11.778-12.903v12.64h-4.142V60.273h2.071l11.463,12.305V60.273
		h4.142v20.671H155.757z"/>
	<path id="XMLID_12_" style="fill:#FFFFFF;" d="M163.053,79.539l1.59-3.244c1.701,1.003,3.374,1.504,5.02,1.504
		c2.529,0,3.794-0.742,3.794-2.228c0-0.696-0.299-1.359-0.895-1.99c-0.597-0.631-1.825-1.339-3.687-2.123
		c-1.86-0.784-3.114-1.429-3.76-1.935c-0.646-0.506-1.144-1.107-1.491-1.803c-0.348-0.696-0.521-1.467-0.521-2.312
		c0-1.577,0.688-2.886,2.063-3.925s3.139-1.56,5.292-1.56c2.806,0,4.865,0.441,6.179,1.322l-1.309,3.118
		c-1.513-0.909-3.108-1.364-4.787-1.364c-0.994,0-1.764,0.221-2.311,0.662c-0.547,0.44-0.82,1.014-0.82,1.719
		c0,1.169,1.541,2.385,4.622,3.647c1.623,0.668,2.794,1.282,3.512,1.844s1.265,1.216,1.64,1.963c0.376,0.747,0.563,1.58,0.563,2.499
		c0,1.651-0.776,3.012-2.327,4.078c-1.552,1.067-3.631,1.602-6.237,1.602C166.918,81.015,164.875,80.522,163.053,79.539z"/>
</g>
<g id="XMLID_1_">
</g>
<g id="XMLID_26_">
</g>
<g id="XMLID_27_">
</g>
<g id="XMLID_28_">
</g>
<g id="XMLID_29_">
</g>
<g id="XMLID_30_">
</g>
<g id="XMLID_31_">
</g>
<g id="XMLID_32_">
</g>
<g id="XMLID_33_">
</g>
<g id="XMLID_34_">
</g>
<g id="XMLID_35_">
</g>
<g id="XMLID_36_">
</g>
<g id="XMLID_37_">
</g>
<g id="XMLID_38_">
</g>
<g id="XMLID_39_">
</g>
</svg>
